<svg width="75" height="35" viewBox="0 0 75 35" fill="none" xmlns="http://www.w3.org/2000/svg">
<path d="M6.39429 0C2.86411 0 0 2.86411 0 6.39429V27.7086C0 31.2388 2.86411 34.1029 6.39429 34.1029H25.5772H27.7086C28.8876 34.1029 29.84 33.1504 29.84 31.9715C29.84 30.7925 28.8876 29.84 27.7086 29.84V25.5772C28.8876 25.5772 29.84 24.6247 29.84 23.4457V2.13143C29.84 0.952483 28.8876 0 27.7086 0H25.5772H6.39429ZM6.39429 25.5772H23.4457V29.84H6.39429C5.21535 29.84 4.26286 28.8876 4.26286 27.7086C4.26286 26.5297 5.21535 25.5772 6.39429 25.5772ZM8.52573 9.59144C8.52573 9.0053 9.0053 8.52573 9.59144 8.52573H22.38C22.9662 8.52573 23.4457 9.0053 23.4457 9.59144C23.4457 10.1776 22.9662 10.6572 22.38 10.6572H9.59144C9.0053 10.6572 8.52573 10.1776 8.52573 9.59144ZM9.59144 12.7886H22.38C22.9662 12.7886 23.4457 13.2682 23.4457 13.8543C23.4457 14.4404 22.9662 14.92 22.38 14.92H9.59144C9.0053 14.92 8.52573 14.4404 8.52573 13.8543C8.52573 13.2682 9.0053 12.7886 9.59144 12.7886Z" fill="#046B99"/>
<path d="M58.9677 33.9504C55.0911 33.3642 51.7608 29.1014 49.8025 25.9775C48.4704 23.8527 48.1307 21.295 48.497 18.8039L50.1089 7.86033C50.2021 7.20758 50.4486 6.58148 50.9681 6.18183C52.3136 5.14276 55.7905 3.41763 63.2971 4.54996C70.8038 5.68228 73.6346 8.37321 74.6204 9.7653C75 10.2982 75.0533 10.9709 74.9601 11.6236L73.3482 22.5672C72.9818 25.0517 71.9161 27.4029 70.0311 29.0414C67.2536 31.446 62.8375 34.5365 58.9677 33.9504ZM60.1066 15.4536C60.1133 15.4203 60.12 15.3803 60.1266 15.347C60.3398 13.8949 59.354 12.5495 57.9219 12.3297C56.4899 12.1099 55.1577 13.1156 54.9446 14.561C54.9379 14.5943 54.9379 14.6343 54.9313 14.6676C54.8913 15.0273 55.2776 15.2271 55.6173 15.1139C56.2168 14.914 56.8695 14.8541 57.5289 14.954C58.1884 15.0539 58.8011 15.307 59.314 15.6734C59.6071 15.8798 60.0334 15.8066 60.1 15.4536H60.1066ZM67.6066 16.9322C67.8997 17.1387 68.326 17.0655 68.3926 16.7124C68.3992 16.6791 68.4059 16.6392 68.4126 16.6059C68.6257 15.1538 67.6399 13.8084 66.2079 13.5886C64.7758 13.3688 63.4437 14.3745 63.2305 15.8199C63.2239 15.8532 63.2239 15.8932 63.2172 15.9265C63.1772 16.2861 63.5636 16.486 63.9032 16.3727C64.5027 16.1729 65.1555 16.113 65.8149 16.2129C66.4743 16.3128 67.0871 16.5659 67.6 16.9322H67.6066ZM66.8406 22.6072C64.9223 23.4597 62.7509 23.7928 60.5196 23.4597C58.2883 23.1267 56.31 22.1609 54.7248 20.7755C54.3051 20.4091 53.6457 20.6622 53.7123 21.2217C54.1053 24.4522 56.5765 27.1564 59.9068 27.6627C63.2372 28.1689 66.381 26.3172 67.6865 23.3399C67.913 22.827 67.3535 22.3874 66.8473 22.6138L66.8406 22.6072ZM48.4037 29.7675C44.5272 30.3536 40.1111 27.2697 37.3403 24.8585C35.4553 23.2266 34.3896 20.8754 34.0232 18.3843L32.4113 7.44737C32.3181 6.79462 32.3714 6.12189 32.751 5.58903C33.7368 4.19694 36.5676 1.51267 44.0743 0.373682C51.5809 -0.765302 55.0578 0.966486 56.4033 2.00556C56.4632 2.05218 56.5165 2.09881 56.5631 2.14543C53.0463 2.46515 50.8949 3.54419 49.6626 4.49667C48.5303 5.36922 48.1307 6.6281 47.9974 7.55394L46.7119 16.2995C46.5387 16.3061 46.3656 16.3261 46.1857 16.3528C43.8411 16.7058 42.0694 18.5308 41.6431 20.7688C41.5365 21.315 42.196 21.5814 42.6289 21.2351C43.668 20.4091 44.9002 19.8163 46.2723 19.5432C46.0725 22.101 46.5387 24.7852 47.9974 27.1098C48.457 27.8425 48.9965 28.6485 49.6093 29.4677C49.2164 29.6076 48.8167 29.7075 48.4104 29.7675H48.4037ZM43.9677 10.458C43.9011 10.105 43.4748 10.0317 43.1817 10.2382C42.6689 10.6046 42.0627 10.8577 41.3967 10.9576C40.7306 11.0575 40.0778 10.9975 39.485 10.7977C39.1453 10.6845 38.759 10.8843 38.799 11.244C38.8056 11.2773 38.8056 11.3172 38.8123 11.3506C39.0254 12.8026 40.3576 13.8017 41.7896 13.5819C43.2217 13.3621 44.2075 12.0166 43.9943 10.5646C43.9877 10.5313 43.981 10.4913 43.9744 10.458H43.9677Z" fill="#046B99"/>
</svg>
