<svg width="60" height="52" viewBox="0 0 60 52" fill="none" xmlns="http://www.w3.org/2000/svg">
<path d="M31.6699 5.00029C31.6699 7.76087 29.4302 10.0006 26.6696 10.0006C23.9091 10.0006 21.6693 7.76087 21.6693 5.00029C21.6693 2.23971 23.9091 0 26.6696 0C29.4302 0 31.6699 2.23971 31.6699 5.00029ZM1.02232 20.7095C1.5536 19.4386 3.01201 18.8344 4.29334 19.3657L6.32471 20.2095L8.71026 16.2405C10.4083 13.3966 13.471 11.6673 16.7732 11.6673C22.1277 11.6673 26.878 15.0946 28.576 20.1783L32.1804 30.981L40.4413 34.4291L44.004 29.6788C44.6707 28.7933 45.7332 28.2933 46.8375 28.3454C47.9417 28.3975 48.9522 29.0121 49.5251 29.9601L59.5257 46.6277C60.1403 47.659 60.1612 48.9403 59.5674 49.9821C58.9736 51.0238 57.8694 51.6697 56.6714 51.6697H30.0032C28.8468 51.6697 27.7739 51.0759 27.1697 50.0862C26.5655 49.0966 26.503 47.8778 27.0238 46.8465L28.6906 43.5129C29.2531 42.3879 30.4094 41.6691 31.6699 41.6691H35.0035L37.3473 38.5439L2.37656 23.9806C1.10565 23.4493 0.501452 21.9909 1.03273 20.7095H1.02232ZM9.64782 30.2726L21.3152 35.2729C22.5444 35.7937 23.3361 37.0021 23.3361 38.3356V48.3361C23.3361 50.18 21.8464 51.6697 20.0026 51.6697C18.1587 51.6697 16.6691 50.18 16.6691 48.3361V40.5336L10.3562 37.8251L6.5018 49.3883C5.91843 51.1384 4.03291 52.0759 2.28281 51.4926C0.532704 50.9092 -0.404851 49.0237 0.168099 47.284L5.16839 32.2831L6.31429 28.8454L9.64782 30.2726Z" fill="#046B99"/>
</svg>
