<svg width="60" height="50" viewBox="0 0 60 50" fill="none" xmlns="http://www.w3.org/2000/svg">
<path d="M49.1827 30.8654C50.3771 30.8654 51.3462 29.8963 51.3462 28.7019C51.3462 27.5075 50.3771 26.5385 49.1827 26.5385C47.9883 26.5385 47.0193 27.5075 47.0193 28.7019C47.0193 29.8963 47.9883 30.8654 49.1827 30.8654ZM50.4087 33.75L47.6232 31.5505C46.8435 30.9375 45.7437 30.9285 44.9595 31.537L41.214 34.4306C39.8303 35.5033 39.9294 37.6217 41.4078 38.5592L44.1346 40.29V45.2885C44.1346 46.0862 44.7792 46.7308 45.5769 46.7308C46.3747 46.7308 47.0193 46.0862 47.0193 45.2885V39.5192C47.0193 39.037 46.7804 38.5862 46.3792 38.3203L44.4501 37.0358L47.168 34.8498L49.0024 36.3191C49.2593 36.5219 49.5748 36.6346 49.9039 36.6346H52.7885C53.5863 36.6346 54.2308 35.9901 54.2308 35.1923C54.2308 34.3945 53.5863 33.75 52.7885 33.75H50.4087ZM40.1683 43.8462C40.1683 45.64 38.717 47.0914 36.9231 47.0914C35.1292 47.0914 33.6779 45.64 33.6779 43.8462C33.6779 42.0523 35.1292 40.601 36.9231 40.601C38.717 40.601 40.1683 42.0523 40.1683 43.8462ZM42.6923 43.8462C42.6923 40.6596 40.1097 38.0769 36.9231 38.0769C33.7365 38.0769 31.1539 40.6596 31.1539 43.8462C31.1539 47.0328 33.7365 49.6154 36.9231 49.6154C40.1097 49.6154 42.6923 47.0328 42.6923 43.8462ZM57.476 43.8462C57.476 45.64 56.0247 47.0914 54.2308 47.0914C52.4369 47.0914 50.9856 45.64 50.9856 43.8462C50.9856 42.0523 52.4369 40.601 54.2308 40.601C56.0247 40.601 57.476 42.0523 57.476 43.8462ZM60 43.8462C60 40.6596 57.4174 38.0769 54.2308 38.0769C51.0442 38.0769 48.4616 40.6596 48.4616 43.8462C48.4616 47.0328 51.0442 49.6154 54.2308 49.6154C57.4174 49.6154 60 47.0328 60 43.8462Z" fill="#046B99"/>
<path d="M15.5 36.1879L22.4326 42.1337C22.3525 42.1788 22.2723 42.2339 22.1922 42.284C21.2905 42.9051 20.1835 43.3008 19.2268 43.3008C18.245 43.3008 17.1831 42.9151 16.2614 42.284C15.1544 41.5076 13.6767 41.5076 12.5697 42.284C11.7132 42.8751 10.6663 43.3008 9.60434 43.3008C9.09842 43.3008 8.54742 43.1906 8.00644 42.9903C8.16673 36.9293 13.1307 32.0604 19.2318 32.0604H22.4376C23.3242 32.0604 24.0405 32.7767 24.0405 33.6633C24.0405 34.55 23.3242 35.2663 22.4376 35.2663H19.2318C17.8844 35.2663 16.612 35.5969 15.5 36.1879ZM1.59981 35.2663C1.59981 33.498 3.03742 32.0604 4.80563 32.0604C6.57384 32.0604 8.01145 33.498 8.01145 35.2663C8.01145 37.0345 6.57384 38.4721 4.80563 38.4721C3.03742 38.4721 1.59981 37.0345 1.59981 35.2663ZM15.3498 43.5763C16.4768 44.3527 17.8543 44.8837 19.2318 44.8837C20.5792 44.8837 22.0068 44.3427 23.1088 43.5763C23.7049 43.1506 24.5164 43.1856 25.0724 43.6615C25.7937 44.2576 26.7003 44.7134 27.607 44.9238C28.4686 45.1241 29.0045 45.9857 28.8042 46.8473C28.6038 47.7088 27.7422 48.2448 26.8807 48.0444C25.6535 47.7589 24.6316 47.2179 23.9654 46.7922C22.5128 47.5736 20.8848 48.0895 19.2318 48.0895C17.6339 48.0895 16.1963 47.5936 15.2045 47.1428C14.914 47.0076 14.6485 46.8773 14.4231 46.7571C14.1977 46.8773 13.9372 47.0126 13.6417 47.1428C12.6499 47.5936 11.2123 48.0895 9.61435 48.0895C7.96136 48.0895 6.3334 47.5736 4.88077 46.7972C4.20955 47.2179 3.1927 47.7639 1.96548 48.0494C1.10392 48.2498 0.242352 47.7138 0.0419888 46.8523C-0.158375 45.9907 0.377598 45.1291 1.23916 44.9288C2.14581 44.7184 3.05245 44.2626 3.77376 43.6665C4.32977 43.1956 5.14124 43.1606 5.73732 43.5813C6.84433 44.3427 8.26691 44.8837 9.61435 44.8837C10.9919 44.8837 12.3694 44.3527 13.4964 43.5763C14.0524 43.1806 14.7938 43.1806 15.3498 43.5763Z" fill="#046B99"/>
<path d="M33.4425 2.85292C33.4425 1.27787 32.1647 0 30.5896 0C29.0146 0 27.7367 1.27787 27.7367 2.85292C27.7367 4.42796 29.0146 5.70583 30.5896 5.70583C32.1647 5.70583 33.4425 4.42796 33.4425 2.85292ZM21.8942 10.431C22.4826 9.84256 23.285 9.50972 24.123 9.50972C24.2359 9.50972 24.3489 9.51566 24.4559 9.52755L22.6015 15.0967C22.0487 16.7609 22.7025 18.5915 24.1943 19.5246L29.3177 22.7282L27.808 28.0061C27.5168 29.0165 28.1052 30.0685 29.1156 30.3598C30.126 30.651 31.178 30.0626 31.4693 29.0522L33.1751 23.0848C33.5257 21.8605 33.0205 20.5529 31.9448 19.8813L28.5688 17.7713L30.4054 12.8738L30.7085 13.6048C31.6 15.7326 33.6743 17.1175 35.9804 17.1175H37.2464C38.2984 17.1175 39.1484 16.2676 39.1484 15.2156C39.1484 14.1635 38.2984 13.3136 37.2464 13.3136H35.9804C35.2137 13.3136 34.5183 12.85 34.2271 12.1427L33.8526 11.2512C32.9849 9.16499 31.2315 7.57211 29.0681 6.90643L26.1735 6.0149C25.5138 5.81282 24.8244 5.70583 24.129 5.70583C22.2864 5.70583 20.5153 6.43689 19.2136 7.74448L17.8347 9.11744C17.0918 9.86039 17.0918 11.0669 17.8347 11.8099C18.5777 12.5528 19.7842 12.5528 20.5271 11.8099L21.9001 10.4369L21.8942 10.431ZM19.8436 20.9214H16.325C15.273 20.9214 14.4231 21.7713 14.4231 22.8233C14.4231 23.8753 15.273 24.7253 16.325 24.7253H20.4618C21.591 24.7253 22.6133 24.0596 23.071 23.0314L23.7545 21.492L23.1899 21.1354C22.1497 20.4875 21.3771 19.5425 20.9373 18.4667L19.8436 20.9214Z" fill="#046B99"/>
<path d="M37.8294 25.7589L38.331 27.2596H39.9027L40.3851 25.7592L39.1144 24.8312L37.8294 25.7589ZM39.0998 22.0055C36.8115 22.0055 34.945 23.8871 34.945 26.2088C34.945 28.5305 36.8115 30.4121 39.1144 30.4121C41.4174 30.4121 43.2692 28.5305 43.2692 26.2236C43.2692 23.9167 41.4174 22.0055 39.0998 22.0055ZM42.033 27.9344L40.3408 27.9085L39.8413 29.5426C39.6063 29.5944 39.3636 29.624 39.1144 29.624C38.8652 29.624 38.6227 29.5949 38.3887 29.543L37.8897 27.9098L36.1963 27.9344C35.9532 27.5182 35.7926 27.0476 35.7435 26.5434L37.1323 25.5586L36.5851 23.9446C36.9084 23.5778 37.3069 23.2804 37.7584 23.0806L39.1144 24.1071L40.471 23.0814C40.9224 23.2813 41.321 23.5784 41.6443 23.9454L41.0965 25.5586L42.4846 26.5432C42.4223 27.0478 42.2757 27.519 42.033 27.9344Z" fill="#046B99"/>
</svg>
