<svg width="50" height="58" viewBox="0 0 50 58" fill="none" xmlns="http://www.w3.org/2000/svg">
<path d="M14.2857 0C16.2612 0 17.8571 1.59462 17.8571 3.56838V7.13675H32.1429V3.56838C32.1429 1.59462 33.7388 0 35.7143 0C37.6897 0 39.2857 1.59462 39.2857 3.56838V7.13675H44.6429C47.6004 7.13675 50 9.53426 50 12.4893V17.8419H0V12.4893C0 9.53426 2.39955 7.13675 5.35714 7.13675H10.7143V3.56838C10.7143 1.59462 12.3103 0 14.2857 0ZM0 21.4103H50V51.7415C50 54.6965 47.6004 57.094 44.6429 57.094H5.35714C2.39955 57.094 0 54.6965 0 51.7415V21.4103ZM7.14286 30.3312V33.8996C7.14286 34.8809 7.94643 35.6838 8.92857 35.6838H12.5C13.4821 35.6838 14.2857 34.8809 14.2857 33.8996V30.3312C14.2857 29.3499 13.4821 28.547 12.5 28.547H8.92857C7.94643 28.547 7.14286 29.3499 7.14286 30.3312ZM21.4286 30.3312V33.8996C21.4286 34.8809 22.2321 35.6838 23.2143 35.6838H26.7857C27.7679 35.6838 28.5714 34.8809 28.5714 33.8996V30.3312C28.5714 29.3499 27.7679 28.547 26.7857 28.547H23.2143C22.2321 28.547 21.4286 29.3499 21.4286 30.3312ZM37.5 28.547C36.5179 28.547 35.7143 29.3499 35.7143 30.3312V33.8996C35.7143 34.8809 36.5179 35.6838 37.5 35.6838H41.0714C42.0536 35.6838 42.8571 34.8809 42.8571 33.8996V30.3312C42.8571 29.3499 42.0536 28.547 41.0714 28.547H37.5ZM7.14286 44.6047V48.1731C7.14286 49.1544 7.94643 49.9573 8.92857 49.9573H12.5C13.4821 49.9573 14.2857 49.1544 14.2857 48.1731V44.6047C14.2857 43.6234 13.4821 42.8205 12.5 42.8205H8.92857C7.94643 42.8205 7.14286 43.6234 7.14286 44.6047ZM23.2143 42.8205C22.2321 42.8205 21.4286 43.6234 21.4286 44.6047V48.1731C21.4286 49.1544 22.2321 49.9573 23.2143 49.9573H26.7857C27.7679 49.9573 28.5714 49.1544 28.5714 48.1731V44.6047C28.5714 43.6234 27.7679 42.8205 26.7857 42.8205H23.2143ZM35.7143 44.6047V48.1731C35.7143 49.1544 36.5179 49.9573 37.5 49.9573H41.0714C42.0536 49.9573 42.8571 49.1544 42.8571 48.1731V44.6047C42.8571 43.6234 42.0536 42.8205 41.0714 42.8205H37.5C36.5179 42.8205 35.7143 43.6234 35.7143 44.6047Z" fill="#046B99"/>
</svg>
