<svg width="60" height="53" viewBox="0 0 60 53" fill="none" xmlns="http://www.w3.org/2000/svg">
<path d="M42.5 12.5C42.5 18.1875 34.8854 28.3229 31.5417 32.5C30.7396 33.5 29.25 33.5 28.4583 32.5C25.1146 28.3229 17.5 18.1875 17.5 12.5C17.5 5.59375 23.0938 0 30 0C36.9062 0 42.5 5.59375 42.5 12.5ZM43.3333 20.875C43.6979 20.1562 44.0312 19.4375 44.3333 18.7292C44.3854 18.6042 44.4375 18.4688 44.4896 18.3438L56.5729 13.5104C58.2187 12.8542 60 14.0625 60 15.8333V44.0417C60 45.0625 59.375 45.9792 58.4271 46.3646L43.3333 52.3958V20.875ZM14.3333 14.4062C14.5833 15.875 15.0833 17.3542 15.6667 18.7292C15.9687 19.4375 16.3021 20.1562 16.6667 20.875V47.0625L3.42708 52.3646C1.78125 53.0208 0 51.8125 0 50.0417V21.8333C0 20.8125 0.625 19.8958 1.57292 19.5104L14.3437 14.4062H14.3333ZM34.1458 34.5833C35.5937 32.7708 37.8646 29.8229 40 26.5625V52.5312L20 46.8125V26.5625C22.1354 29.8229 24.4062 32.7708 25.8542 34.5833C27.9896 37.25 32.0104 37.25 34.1458 34.5833ZM30 15.8333C32.3021 15.8333 34.1667 13.9688 34.1667 11.6667C34.1667 9.36458 32.3021 7.5 30 7.5C27.6979 7.5 25.8333 9.36458 25.8333 11.6667C25.8333 13.9688 27.6979 15.8333 30 15.8333Z" fill="#046B99"/>
</svg>
