<svg width="60" height="55" viewBox="0 0 60 55" fill="none" xmlns="http://www.w3.org/2000/svg">
<path d="M21.5625 5.48571H38.4375C38.9531 5.48571 39.375 5.89714 39.375 6.4V10.9714H20.625V6.4C20.625 5.89714 21.0469 5.48571 21.5625 5.48571ZM15 6.4V10.9714H7.5C3.36328 10.9714 0 14.2514 0 18.2857V29.2571H22.5H37.5H60V18.2857C60 14.2514 56.6367 10.9714 52.5 10.9714H45V6.4C45 2.86857 42.0586 0 38.4375 0H21.5625C17.9414 0 15 2.86857 15 6.4ZM60 32.9143H37.5V36.5714C37.5 38.5943 35.8242 40.2286 33.75 40.2286H26.25C24.1758 40.2286 22.5 38.5943 22.5 36.5714V32.9143H0V47.5429C0 51.5771 3.36328 54.8571 7.5 54.8571H52.5C56.6367 54.8571 60 51.5771 60 47.5429V32.9143Z" fill="#046B99"/>
</svg>
