<svg width="60" height="61" viewBox="0 0 60 61" fill="none" xmlns="http://www.w3.org/2000/svg">
<path d="M29.0631 0H30.9383C32.497 0 33.751 1.254 33.751 2.81272V4.06672C43.1736 5.63716 50.6156 13.0791 52.186 22.5018H52.5025C54.5768 22.5018 56.2527 24.1777 56.2527 26.252C56.2527 28.3264 54.5768 30.0023 52.5025 30.0023H7.49895C5.42457 30.0023 3.74866 28.3264 3.74866 26.252C3.74866 24.1777 5.42457 22.5018 7.49895 22.5018H7.81538C9.38581 13.0791 16.8278 5.63716 26.2504 4.06672V2.81272C26.2504 1.254 27.5044 0 29.0631 0ZM7.49895 33.7526H14.9995V48.7538H19.6874V33.7526H27.188V48.7538H32.8134V33.7526H40.314V48.7538H45.0019V33.7526H52.5025V49.2577C52.5728 49.2929 52.6431 49.3398 52.7017 49.3867L58.3271 53.1369C59.6983 54.0511 60.3195 55.7621 59.839 57.3443C59.3585 58.9265 57.9052 60.0047 56.2527 60.0047H3.74866C2.09618 60.0047 0.642946 58.9265 0.16244 57.3443C-0.318066 55.7621 0.291356 54.0511 1.67428 53.1369L7.29971 49.3867C7.37003 49.3398 7.44035 49.3046 7.51067 49.2577V33.7526H7.49895Z" fill="#046B99"/>
</svg>
