<svg width="60" height="55" viewBox="0 0 60 55" fill="none" xmlns="http://www.w3.org/2000/svg">
<path d="M46.6086 28.143C53.6391 28.143 58.3261 29.9843 58.3261 32.3278V33.1648V34.8387C59.252 34.8387 60 35.5867 60 36.5126V39.8605C60 40.7864 59.252 41.5344 58.3261 41.5344V49.9041C58.3261 50.83 57.578 51.578 56.6521 51.578V53.252C56.6521 54.1779 55.9041 54.9259 54.9782 54.9259H53.3043C52.3784 54.9259 51.6304 54.1779 51.6304 53.252V51.578H41.5868V53.252C41.5868 54.1779 40.8387 54.9259 39.9128 54.9259H38.2389C37.313 54.9259 36.565 54.1779 36.565 53.252V51.578C35.6391 51.578 34.891 50.83 34.891 49.9041V41.5344C33.9651 41.5344 33.2171 40.7864 33.2171 39.8605V36.5126C33.2171 35.5867 33.9651 34.8387 34.891 34.8387V33.1648V32.3278C34.891 29.9843 39.578 28.143 46.6086 28.143ZM38.2389 36.5126V41.5344C38.2389 42.4603 38.9869 43.2084 39.9128 43.2084H45.7716V34.8387H39.9128C38.9869 34.8387 38.2389 35.5867 38.2389 36.5126ZM47.4455 43.2084H53.3043C54.2302 43.2084 54.9782 42.4603 54.9782 41.5344V36.5126C54.9782 35.5867 54.2302 34.8387 53.3043 34.8387H47.4455V43.2084ZM39.0759 49.0671C40.0018 49.0671 40.7498 48.3191 40.7498 47.3932C40.7498 46.4673 40.0018 45.7193 39.0759 45.7193C38.15 45.7193 37.4019 46.4673 37.4019 47.3932C37.4019 48.3191 38.15 49.0671 39.0759 49.0671ZM54.1413 49.0671C55.0671 49.0671 55.8152 48.3191 55.8152 47.3932C55.8152 46.4673 55.0671 45.7193 54.1413 45.7193C53.2154 45.7193 52.4673 46.4673 52.4673 47.3932C52.4673 48.3191 53.2154 49.0671 54.1413 49.0671ZM51.6304 32.3278C51.6304 31.8675 51.2537 31.4908 50.7934 31.4908H42.4237C41.9634 31.4908 41.5868 31.8675 41.5868 32.3278C41.5868 32.7881 41.9634 33.1648 42.4237 33.1648H50.7934C51.2537 33.1648 51.6304 32.7881 51.6304 32.3278Z" fill="#046B99"/>
<path d="M7.07236 35.9582L5.70706 39.8605H21.0758L19.7105 35.9582C19.4752 35.2886 18.8422 34.8387 18.1308 34.8387H8.65214C7.94071 34.8387 7.30776 35.2886 7.07236 35.9582ZM2.07149 40.1116L3.91282 34.8544C4.61901 32.8405 6.51787 31.4908 8.65214 31.4908H18.1308C20.265 31.4908 22.1639 32.8405 22.8701 34.8544L24.7114 40.1116C25.925 40.6138 26.7829 41.8117 26.7829 43.2084V50.7411V53.252C26.7829 54.1779 26.0349 54.9259 25.109 54.9259H23.435C22.5092 54.9259 21.7611 54.1779 21.7611 53.252V50.7411H5.0218V53.252C5.0218 54.1779 4.27376 54.9259 3.34786 54.9259H1.67393C0.748038 54.9259 0 54.1779 0 53.252V50.7411V43.2084C0 41.8117 0.85789 40.6138 2.07149 40.1116ZM6.69573 44.8823C6.69573 43.9564 5.94769 43.2084 5.0218 43.2084C4.0959 43.2084 3.34786 43.9564 3.34786 44.8823C3.34786 45.8082 4.0959 46.5562 5.0218 46.5562C5.94769 46.5562 6.69573 45.8082 6.69573 44.8823ZM21.7611 46.5562C22.687 46.5562 23.435 45.8082 23.435 44.8823C23.435 43.9564 22.687 43.2084 21.7611 43.2084C20.8352 43.2084 20.0872 43.9564 20.0872 44.8823C20.0872 45.8082 20.8352 46.5562 21.7611 46.5562Z" fill="#046B99"/>
<path d="M21.6565 0C18.8841 0 16.6347 2.24935 16.6347 5.0218V18.4133C16.6347 20.9241 18.476 23.0009 20.8771 23.3775L18.4708 25.7838C18.1046 26.15 18.3662 26.7829 18.8841 26.7829H20.9608C21.4054 26.7829 21.8291 26.6051 22.143 26.2912L25.0044 23.435H31.7001L34.5562 26.2912C34.8701 26.6051 35.2938 26.7829 35.7385 26.7829H37.8204C38.3435 26.7829 38.6051 26.15 38.2337 25.7838L35.8274 23.3775C38.2337 23.0061 40.0698 20.9241 40.0698 18.4133V5.0218C40.0698 2.24935 37.8204 0 35.048 0H21.6565ZM19.9826 6.69573C19.9826 5.76983 20.7306 5.0218 21.6565 5.0218H25.8413C26.7672 5.0218 27.5153 5.76983 27.5153 6.69573V11.7175C27.5153 12.6434 26.7672 13.3915 25.8413 13.3915H21.6565C20.7306 13.3915 19.9826 12.6434 19.9826 11.7175V6.69573ZM30.8631 5.0218H35.048C35.9739 5.0218 36.7219 5.76983 36.7219 6.69573V11.7175C36.7219 12.6434 35.9739 13.3915 35.048 13.3915H30.8631C29.9372 13.3915 29.1892 12.6434 29.1892 11.7175V6.69573C29.1892 5.76983 29.9372 5.0218 30.8631 5.0218ZM23.3304 18.4133C23.3304 19.3391 22.5824 20.0872 21.6565 20.0872C20.7306 20.0872 19.9826 19.3391 19.9826 18.4133C19.9826 17.4874 20.7306 16.7393 21.6565 16.7393C22.5824 16.7393 23.3304 17.4874 23.3304 18.4133ZM35.048 20.0872C34.1221 20.0872 33.374 19.3391 33.374 18.4133C33.374 17.4874 34.1221 16.7393 35.048 16.7393C35.9739 16.7393 36.7219 17.4874 36.7219 18.4133C36.7219 19.3391 35.9739 20.0872 35.048 20.0872Z" fill="#046B99"/>
</svg>
