<svg width="60" height="52" viewBox="0 0 60 52" fill="none" xmlns="http://www.w3.org/2000/svg">
<path d="M22.8047 0H37.1953C39.6211 0 41.7656 1.52988 42.5273 3.79808L43.7461 7.40638H52.5C56.6367 7.40638 60 10.7277 60 14.8128V44.4383C60 48.5234 56.6367 51.8447 52.5 51.8447H7.5C3.35742 51.8447 0 48.5234 0 44.4383V14.8128C0 10.7277 3.35742 7.40638 7.5 7.40638H16.2539L17.4727 3.79808C18.2344 1.52988 20.3789 0 22.8047 0ZM30 40.7351C36.2109 40.7351 41.25 35.7589 41.25 29.6255C41.25 23.388 36.2109 18.5159 30 18.5159C23.6836 18.5159 18.75 23.388 18.75 29.6255C18.75 35.7589 23.6836 40.7351 30 40.7351Z" fill="#046B99"/>
</svg>
